<svg xmlns="http://www.w3.org/2000/svg" viewBox="0 0 1920 1080" preserveAspectRatio="xMidYMid slice">
  <defs>
    <radialGradient id="sun-glow" cx="0.88" cy="0.16" r="0.28">
      <stop offset="0%"  stop-color="rgba(251,191,36,.10)"/>
      <stop offset="60%" stop-color="rgba(251,191,36,.02)"/>
      <stop offset="100%" stop-color="rgba(251,191,36,0)"/>
    </radialGradient>
    <radialGradient id="blue-glow" cx="0.08" cy="0.85" r="0.30">
      <stop offset="0%"  stop-color="rgba(20,63,122,.06)"/>
      <stop offset="100%" stop-color="rgba(20,63,122,0)"/>
    </radialGradient>
  </defs>

  <rect width="1920" height="1080" fill="url(#sun-glow)"/>
  <rect width="1920" height="1080" fill="url(#blue-glow)"/>

  <g opacity="0.07">
    <circle cx="1700" cy="180" r="34" fill="#f59e0b"/>
    <g stroke="#f59e0b" stroke-width="2.5" stroke-linecap="round" fill="none">
      <line x1="1700" y1="105" x2="1700" y2="86"/>
      <line x1="1700" y1="275" x2="1700" y2="256"/>
      <line x1="1620" y1="180" x2="1601" y2="180"/>
      <line x1="1780" y1="180" x2="1799" y2="180"/>
      <line x1="1640" y1="120" x2="1626" y2="106"/>
      <line x1="1760" y1="120" x2="1774" y2="106"/>
      <line x1="1640" y1="240" x2="1626" y2="254"/>
      <line x1="1760" y1="240" x2="1774" y2="254"/>
    </g>
  </g>

  <g opacity="0.06" fill="none" stroke="#143f7a" stroke-width="1.5">
    <circle cx="180" cy="900" r="80"/>
    <circle cx="180" cy="900" r="150"/>
    <circle cx="180" cy="900" r="230"/>
    <circle cx="180" cy="900" r="320"/>
  </g>

  <g opacity="0.05" fill="none" stroke="#0ea5e9" stroke-width="2.5" stroke-linecap="round">
    <path d="M0,560 Q480,490 960,560 T1920,560"/>
    <path d="M0,610 Q480,540 960,610 T1920,610"/>
    <path d="M0,660 Q480,590 960,660 T1920,660"/>
  </g>
</svg>
