<svg xmlns="http://www.w3.org/2000/svg" viewBox="0 0 1920 960" preserveAspectRatio="xMidYMid slice">
  <defs>
    <linearGradient id="bg" x1="0" y1="0" x2="1" y2="1">
      <stop offset="0%"  stop-color="#1e88e5"/>
      <stop offset="55%" stop-color="#143f7a"/>
      <stop offset="100%" stop-color="#0c1a2c"/>
    </linearGradient>
    <radialGradient id="sun" cx="0.85" cy="0.18" r="0.35">
      <stop offset="0%"  stop-color="rgba(251,191,36,.55)"/>
      <stop offset="60%" stop-color="rgba(251,191,36,.10)"/>
      <stop offset="100%" stop-color="rgba(251,191,36,0)"/>
    </radialGradient>
  </defs>
  <rect width="1920" height="960" fill="url(#bg)"/>
  <rect width="1920" height="960" fill="url(#sun)"/>
  <g fill="none" stroke="rgba(255,255,255,.10)" stroke-width="2">
    <circle cx="1632" cy="173" r="80"/>
    <circle cx="1632" cy="173" r="160"/>
    <circle cx="1632" cy="173" r="260"/>
    <circle cx="1632" cy="173" r="380"/>
  </g>
  <g fill="none" stroke="rgba(255,255,255,.07)" stroke-width="1.5">
    <circle cx="280" cy="780" r="180"/>
    <circle cx="280" cy="780" r="260"/>
    <circle cx="280" cy="780" r="340"/>
  </g>
  <g fill="none" stroke="rgba(14,165,233,.30)" stroke-width="3" stroke-linecap="round">
    <path d="M0,560 Q240,440 480,540 T960,540 T1440,540 T1920,540" opacity=".6"/>
    <path d="M0,620 Q240,500 480,600 T960,600 T1440,600 T1920,600" opacity=".35"/>
    <path d="M0,690 Q240,570 480,670 T960,670 T1440,670 T1920,670" opacity=".18"/>
  </g>
  <g fill="rgba(255,255,255,.20)">
    <circle cx="160" cy="180" r="3"/>
    <circle cx="380" cy="120" r="2"/>
    <circle cx="540" cy="220" r="3"/>
    <circle cx="720" cy="140" r="2"/>
    <circle cx="940" cy="80"  r="3"/>
    <circle cx="1200" cy="220" r="2"/>
    <circle cx="1340" cy="100" r="3"/>
    <circle cx="1500" cy="240" r="2"/>
  </g>
</svg>
