<svg xmlns="http://www.w3.org/2000/svg" viewBox="0 0 600 300" preserveAspectRatio="xMidYMid slice">
  <defs>
    <linearGradient id="g" x1="0" x2="1" y1="0" y2="1">
      <stop offset="0%" stop-color="#a78bfa"/>
      <stop offset="100%" stop-color="#5b21b6"/>
    </linearGradient>
  </defs>
  <rect width="600" height="300" fill="url(#g)"/>
  <g fill="rgba(255,255,255,.88)" stroke="none">
    <rect x="120" y="120" width="22" height="110" rx="3"/>
    <rect x="150" y="100" width="22" height="130" rx="3"/>
    <rect x="180" y="115" width="22" height="115" rx="3"/>
    <rect x="210" y="90" width="22" height="140" rx="3"/>
    <rect x="240" y="110" width="22" height="120" rx="3"/>
  </g>
  <g fill="rgba(255,255,255,.4)">
    <rect x="130" y="124" width="4" height="14" rx="1"/>
    <rect x="160" y="104" width="4" height="14" rx="1"/>
    <rect x="190" y="119" width="4" height="14" rx="1"/>
    <rect x="220" y="94"  width="4" height="14" rx="1"/>
    <rect x="250" y="114" width="4" height="14" rx="1"/>
  </g>
  <g fill="none" stroke="rgba(255,255,255,.35)" stroke-width="2">
    <path d="M400,200 Q440,150 480,200 Q520,250 560,200"/>
    <path d="M400,160 Q440,110 480,160 Q520,210 560,160"/>
  </g>
  <circle cx="490" cy="100" r="28" fill="rgba(251,191,36,.7)"/>
</svg>
