<svg xmlns="http://www.w3.org/2000/svg" viewBox="0 0 600 300" preserveAspectRatio="xMidYMid slice">
  <defs>
    <linearGradient id="g" x1="0" x2="1" y1="0" y2="1">
      <stop offset="0%" stop-color="#f472b6"/>
      <stop offset="100%" stop-color="#9d174d"/>
    </linearGradient>
  </defs>
  <rect width="600" height="300" fill="url(#g)"/>
  <g fill="rgba(255,255,255,.9)">
    <path d="M180,220 C180,220 100,170 100,125 C100,100 120,80 145,80 C160,80 175,90 180,105 C185,90 200,80 215,80 C240,80 260,100 260,125 C260,170 180,220 180,220 Z"/>
  </g>
  <g fill="none" stroke="rgba(255,255,255,.3)" stroke-width="2">
    <path d="M380,60 C380,60 380,120 420,140 C460,160 460,200 460,200"/>
    <path d="M440,70 C440,70 440,130 480,150 C520,170 520,210 520,210"/>
  </g>
  <g fill="rgba(254,243,199,.6)">
    <circle cx="400" cy="100" r="6"/>
    <circle cx="450" cy="150" r="4"/>
    <circle cx="490" cy="120" r="5"/>
    <circle cx="510" cy="180" r="6"/>
  </g>
</svg>
