<svg xmlns="http://www.w3.org/2000/svg" viewBox="0 0 600 300" preserveAspectRatio="xMidYMid slice">
  <defs>
    <linearGradient id="g" x1="0" x2="1" y1="0" y2="1">
      <stop offset="0%" stop-color="#10b981"/>
      <stop offset="100%" stop-color="#065f46"/>
    </linearGradient>
  </defs>
  <rect width="600" height="300" fill="url(#g)"/>
  <g fill="none" stroke="rgba(255,255,255,.9)" stroke-width="2">
    <circle cx="180" cy="150" r="80"/>
    <ellipse cx="180" cy="150" rx="80" ry="32"/>
    <line x1="180" y1="70" x2="180" y2="230"/>
    <path d="M100,150 Q180,100 260,150 Q180,200 100,150" fill="rgba(255,255,255,.12)" stroke="none"/>
  </g>
  <g fill="rgba(255,255,255,.85)">
    <circle cx="160" cy="125" r="3"/>
    <circle cx="200" cy="135" r="3"/>
    <circle cx="195" cy="170" r="3"/>
    <circle cx="155" cy="175" r="3"/>
  </g>
  <g fill="none" stroke="rgba(255,255,255,.55)" stroke-width="2" stroke-dasharray="6 4">
    <path d="M350,80 Q420,40 500,90 Q540,140 480,200 Q420,240 350,210"/>
  </g>
  <g fill="#fbbf24">
    <polygon points="350,80 358,86 350,90 342,86" />
    <polygon points="500,90 508,96 500,100 492,96" />
    <polygon points="350,210 358,216 350,220 342,216" />
  </g>
</svg>
