<svg xmlns="http://www.w3.org/2000/svg" viewBox="0 0 600 300" preserveAspectRatio="xMidYMid slice">
  <defs>
    <linearGradient id="g" x1="0" x2="1" y1="0" y2="1">
      <stop offset="0%" stop-color="#8b5cf6"/>
      <stop offset="100%" stop-color="#4c1d95"/>
    </linearGradient>
  </defs>
  <rect width="600" height="300" fill="url(#g)"/>
  <g fill="rgba(255,255,255,.85)">
    <polygon points="100,170 180,140 260,170 180,200" />
    <polygon points="180,140 180,200 180,235 100,205 100,170" fill="rgba(255,255,255,.55)"/>
    <polygon points="180,140 180,200 180,235 260,205 260,170" fill="rgba(255,255,255,.7)"/>
    <line x1="180" y1="140" x2="180" y2="100" stroke="#fbbf24" stroke-width="4"/>
    <circle cx="180" cy="100" r="8" fill="#fbbf24"/>
  </g>
  <g fill="none" stroke="rgba(255,255,255,.2)" stroke-width="1.5">
    <path d="M380,60 Q450,100 420,160 T480,260"/>
    <path d="M430,40 Q500,90 470,150 T530,250"/>
  </g>
  <circle cx="500" cy="100" r="40" fill="rgba(251,191,36,.25)"/>
</svg>
