<svg xmlns="http://www.w3.org/2000/svg" viewBox="0 0 600 300" preserveAspectRatio="xMidYMid slice">
  <defs>
    <linearGradient id="g" x1="0" x2="1" y1="0" y2="1">
      <stop offset="0%" stop-color="#fb923c"/>
      <stop offset="100%" stop-color="#c2410c"/>
    </linearGradient>
  </defs>
  <rect width="600" height="300" fill="url(#g)"/>
  <g fill="rgba(255,255,255,.9)">
    <path d="M180,80 C140,80 110,115 110,150 C110,178 130,200 145,215 L145,235 L215,235 L215,215 C230,200 250,178 250,150 C250,115 220,80 180,80 Z"/>
    <rect x="155" y="240" width="50" height="10" rx="2"/>
    <rect x="160" y="255" width="40" height="6" rx="2"/>
    <g stroke="#c2410c" stroke-width="3" stroke-linecap="round" fill="none">
      <line x1="170" y1="150" x2="170" y2="180"/>
      <line x1="190" y1="150" x2="190" y2="180"/>
    </g>
  </g>
  <g fill="none" stroke="rgba(255,255,255,.25)" stroke-width="2">
    <polyline points="350,220 400,180 450,200 520,140"/>
    <circle cx="350" cy="220" r="5" fill="rgba(255,255,255,.5)"/>
    <circle cx="400" cy="180" r="5" fill="rgba(255,255,255,.5)"/>
    <circle cx="450" cy="200" r="5" fill="rgba(255,255,255,.5)"/>
    <circle cx="520" cy="140" r="6" fill="#fef3c7"/>
  </g>
  <g stroke="#fbbf24" stroke-width="3" stroke-linecap="round">
    <line x1="180" y1="55" x2="180" y2="40"/>
    <line x1="140" y1="70" x2="128" y2="58"/>
    <line x1="220" y1="70" x2="232" y2="58"/>
  </g>
</svg>
